<?xml version="1.0" encoding="UTF-8"?>
<svg id="Layer_1" data-name="Layer 1" xmlns="http://www.w3.org/2000/svg" viewBox="0 0 1500 1500">
  <defs>
    <style>
      .cls-1 {
        fill: #fff;
      }

      .cls-1, .cls-2 {
        stroke-width: 0px;
      }

      .cls-2 {
        fill: #007bff;
      }
    </style>
  </defs>
  <rect class="cls-2" x="0" width="1500" height="1500"/>
  <g>
    <path class="cls-1" d="M522.36,935.72c-2.34,0-4.68-.1-7.06-.31-29.84-2.58-55.63-22.66-67.25-51.24l-.77-1.9s0,0,0,0l-85.4-314.53h0s0,0,0,0c47.1-13.71,96.02,14.71,109.26,63.48l53.79,198.09,60.38-114.82c10.44-19.86,30.5-32.2,52.33-32.2h0c21.82,0,41.9,12.35,52.34,32.2l60.36,114.81h0s53.8-198.09,53.8-198.09c13.25-48.77,62.17-77.19,109.27-63.47h0s0,0,0,0l-85.43,314.52s0,0,0,0l-1.07,2.62c-12.05,29.67-38.82,49.1-69.86,50.72-31.02,1.62-59.56-14.94-74.42-43.21l-45-85.6h0s-45.01,85.61-45.01,85.61c-14.2,27-40.85,43.31-70.26,43.31Z"/>
    <path class="cls-1" d="M1098.99,649.13h-193.91l20.94-81.04h172.98c21.61,0,39.13,18.14,39.13,40.52h0c0,22.38-17.52,40.52-39.13,40.52Z"/>
    <path class="cls-1" d="M1037.35,759.9h-161.9s22.48-81.04,22.48-81.04h139.42c21.61,0,39.13,18.14,39.13,40.52h0c0,22.38-17.52,40.52-39.13,40.52Z"/>
  </g>
</svg>